# xmcd
#
# Track frame offsets:
#   150
#   17549
#   32840
#   52102
#   65824
#   85592
#   99110
#   111384
#   127304
#   141110
#   155886
#   171669
#   187810
#   201455
#   219822
#   240450
#   255053
#   272578
#   288913
#   305815
#
# Disc length: 4253 seconds
#
# Revision: 0
# Processed by: cddbd v1.5.2PL0 Copyright (c) Steve Scherf et al.
# Submitted via: uFREEDB ActiveX Control 1.5
#
DISCID=25109b14
DTITLE=Fernando and Sorocaba - Fernando and Sorocaba a 20 mais
DYEAR=2009
DGENRE=Country
TTITLE0=Bola de prata
TTITLE1=Paga Pau
TTITLE2=Vem ficar do meu lado
TTITLE3=Da cor do Pecado
TTITLE4=Volta la pro seu lugar
TTITLE5=Força de um furacão
TTITLE6=Chevetão
TTITLE7=Juliana
TTITLE8=Vitimas do amor
TTITLE9=Vendaval
TTITLE10=Que raiva que da
TTITLE11=Um quadrado
TTITLE12=Estrela solitaria
TTITLE13=Consequencias de te amar
TTITLE14=Companheiro
TTITLE15=O mundo avisou
TTITLE16=Brilho no olhar
TTITLE17=Voce e mais
TTITLE18=100% voce
TTITLE19=Livre pro amor
EXTD=
EXTT0=
EXTT1=
EXTT2=
EXTT3=
EXTT4=
EXTT5=
EXTT6=
EXTT7=
EXTT8=
EXTT9=
EXTT10=
EXTT11=
EXTT12=
EXTT13=
EXTT14=
EXTT15=
EXTT16=
EXTT17=
EXTT18=
EXTT19=
PLAYORDER=
